<svg xmlns="http://www.w3.org/2000/svg" data-name="Layer 1" viewBox="0 0 100 125" x="0px" y="0px" width="400" height="500">
  <path d="M58.7,53.17a10.21,10.21,0,0,0-17.4,0l-3.78,6.14a6.1,6.1,0,0,0-.88,3.14h0a6,6,0,0,0,9,5.16h0a8.66,8.66,0,0,1,8.72,0h0a6,6,0,0,0,9-5.16h0a6.1,6.1,0,0,0-.88-3.14Z" fill="#ff6347"/>
  <ellipse cx="42.68" cy="38.55" rx="5.69" ry="7.01" transform="translate(-4.41 5.53) rotate(-7.04)" fill="#ff6347"/>
  <path d="M37.6,47.43c-.6-3.39-3.31-5.75-6.07-5.27s-4.51,3.63-3.91,7,3.31,5.75,6.06,5.27S38.19,50.82,37.6,47.43Z" fill="#ff6347"/>
  <path d="M56.46,45.51c3.12.38,6-2.42,6.51-6.26S61.3,32,58.18,31.6s-6,2.41-6.51,6.25S53.34,45.12,56.46,45.51Z" fill="#ff6347"/>
  <path d="M68.47,42.16C65.71,41.68,63,44,62.4,47.43s1.16,6.53,3.92,7,5.47-1.88,6.06-5.27S71.23,42.64,68.47,42.16Z" fill="#ff6347"/>
</svg>
