<?xml version="1.0" encoding="UTF-8"?>
<svg xmlns="http://www.w3.org/2000/svg" viewBox="0 0 524.65 522.45">
  <defs>
    <style>
      .cls-1 {
        fill: #70a4c4;
      }

      .cls-1, .cls-2, .cls-3, .cls-4 {
        stroke-width: 0px;
      }

      .cls-5 {
        fill: none;
        stroke: #ea7265;
        stroke-miterlimit: 10;
        stroke-width: 4px;
      }

      .cls-2 {
        fill: #e56761;
      }

      .cls-6 {
        isolation: isolate;
      }

      .cls-7 {
        mix-blend-mode: multiply;
        opacity: .5;
      }

      .cls-3 {
        fill: #ff604b;
      }

      .cls-4 {
        fill: #ff7a68;
      }
    </style>
  </defs>
  <g class="cls-6">
    <g id="Capa_1" data-name="Capa 1">
      <g>
        <path class="cls-4" d="M218.38,313.49c13.56-6.49,28.74-10.13,44.78-10.13h0c16.07,0,31.29,3.65,44.87,10.17,12.76-7.4,38.89-21.35,54.71-21.49,1.05-.13,2.13-.14,3.01-.03.43.06,1.51.17,1.51.31v-65.24c0-15.82-4.7-30.8-11.1-44.18,7.54-14.68,26.02-55.58,15.33-66.27-10.94-10.93-53.49,9.36-67.24,16.49-12.7-5.65-26.75-9.2-41.55-9.2h-.01c-14.62,0-28.52,3.47-41.1,8.99-14.15-7.31-55.99-27.31-66.83-16.48-10.5,10.5,9.32,50.21,17.14,65.53-6.66,13.58-9.23,28.95-9.23,45.11v64.86s.68.04,1.19.1c15.77.04,41.71,14.01,54.54,21.45ZM313.29,187.69c8.13,0,14.72,6.59,14.72,14.72s-6.59,14.72-14.72,14.72-14.72-6.59-14.72-14.72,6.59-14.72,14.72-14.72ZM278.22,212.57s-10,16.25-15.63,16.25-15.63-16.25-15.63-16.25h31.27ZM232.94,235.83c1.69,0,3.05,1.36,3.05,3.05,0,7.28,5.24,13.2,11.69,13.2s11.86-5.92,11.86-13.2c0-1.68,1.37-3.05,3.05-3.05s3.05,1.36,3.05,3.05c0,7.28,5.32,13.2,11.86,13.2s11.69-5.92,11.69-13.2c0-1.68,1.36-3.05,3.05-3.05s3.04,1.36,3.04,3.05c0,10.64-7.98,19.29-17.78,19.29-6.2,0-11.69-3.4-14.91-8.55-3.23,5.16-8.71,8.55-14.91,8.55-9.8,0-17.78-8.65-17.78-19.29,0-1.68,1.36-3.05,3.04-3.05ZM211.74,187.69c8.13,0,14.72,6.59,14.72,14.72s-6.59,14.72-14.72,14.72-14.72-6.59-14.72-14.72,6.59-14.72,14.72-14.72Z"/>
        <path class="cls-1" d="M367.05,347.82v-.87c-.1.29-.21.58-.31.87h.31Z"/>
        <path class="cls-2" d="M370.39,293.54c-.42-.22-.87-.4-1.33-.56-.07-.03-.14-.05-.21-.08-.23-.08-.44-.17-.68-.24-.39-.13-.76-.24-1.13-.34-.5-.14-.98-.25-1.41-.31-.88-.12-1.85-.1-2.9.03-15.82.14-41.95,14.09-54.71,21.49-13.58-6.52-28.8-10.17-44.87-10.17h0c-16.03,0-31.22,3.64-44.78,10.13-12.83-7.44-39.04-21.41-54.81-21.45-.51-.06-.99-.1-1.46-.1-.5,0-.99.02-1.44.08-10.3,1.38-39.04,24.42-34.71,37.88,2.96,9.19,16.95,12.18,31.17,10.43,3.3,9.94,7.14,19.53,10.21,26.71-5.2,12.36-8.1,25.94-8.1,40.2v93.47c30.69,13.96,67.12,21.76,104.18,21.76s73.14-7.74,103.83-21.61v-93.62c0-14.18-2.96-27.69-8.11-40,2.3-5.38,5.01-12.14,7.65-19.4.11-.29.18-.58.29-.87.78-2.17,1.54-4.38,2.28-6.62,14.17,1.71,28.06-1.28,31-10.44,3.78-11.74-17.6-30.76-29.96-36.35ZM211.15,393.54c-6.26,0-11.33-5.07-11.33-11.33s5.07-11.33,11.33-11.33,11.33,5.07,11.33,11.33-5.07,11.33-11.33,11.33ZM280.88,465.76c-7.68,0-14.42-4.41-18.15-11-3.73,6.59-10.47,11-18.15,11-11.6,0-21.03-10.26-21.03-22.87,0-1.71,1.38-3.09,3.09-3.09s3.09,1.39,3.09,3.09c0,9.2,6.66,16.69,14.85,16.69s15.06-7.49,15.06-16.69c0-1.71,1.38-3.09,3.09-3.09s3.09,1.39,3.09,3.09c0,9.2,6.76,16.69,15.06,16.69s14.85-7.49,14.85-16.69c0-1.71,1.39-3.09,3.09-3.09s3.09,1.39,3.09,3.09c0,12.61-9.43,22.87-21.03,22.87ZM243.7,413.76h38.06s-12.17,19.78-19.03,19.78-19.03-19.78-19.03-19.78ZM314.17,393.54c-6.26,0-11.33-5.07-11.33-11.33s5.07-11.33,11.33-11.33,11.33,5.07,11.33,11.33-5.07,11.33-11.33,11.33Z"/>
        <g class="cls-7">
          <path class="cls-3" d="M370.39,293.54c-.42-.22-.87-.4-1.33-.56-.07-.03-.14-.05-.21-.08-.23-.08-.34-.17-.58-.24-.39-.13-1.03-.24-1.03-.34v-65.24c0-15.82-4.7-30.8-11.1-44.18,7.54-14.68,26.02-55.58,15.33-66.27-10.94-10.93-53.3,9.74-67.06,16.87-12.15-5.4-25.83-8.5-39.47-8.76v87.83h13.27s-6.45,14.59-13.27,17.41v6.63c0,.56.87,1.35.87,2.27,0,7.28,5.23,13.2,11.77,13.2s11.64-5.92,11.64-13.2c0-1.68,1.34-3.05,3.02-3.05s3.03,1.36,3.03,3.05c0,10.64-7.8,19.29-17.6,19.29-5.08,0-9.33-2.3-12.74-5.96v161.55h16.81s-9.99,15.82-16.81,18.61v8.1c0,.56,1.06,1.41,1.06,2.42,0,9.2,6.66,16.69,14.97,16.69s14.8-7.49,14.8-16.69c0-1.71,1.36-3.09,3.07-3.09s3.08,1.39,3.08,3.09c0,12.61-9.25,22.87-20.85,22.87-6.56,0-12.72-3.23-16.13-8.27v64.95c37.51-.19,71.61-7.89,102.3-21.59v-93.62c0-14.18-2.96-27.69-8.11-40,2.3-5.38,5.01-12.14,7.65-19.4.11-.29.18-.58.29-.87.78-2.17,1.54-4.38,2.28-6.62,14.17,1.71,28.06-1.28,31-10.44,3.78-11.74-17.6-30.76-29.96-36.35ZM314.17,393.54c-6.26,0-11.33-5.07-11.33-11.33s5.07-11.33,11.33-11.33,11.33,5.07,11.33,11.33-5.07,11.33-11.33,11.33ZM313.29,217.13c-8.13,0-14.72-6.59-14.72-14.72s6.59-14.72,14.72-14.72,14.72,6.59,14.72,14.72-6.59,14.72-14.72,14.72Z"/>
        </g>
        <path class="cls-5" d="M365.49,500.85c93.15-40.11,157.15-131.83,157.15-238.62C522.65,118.51,406.53,2,262.81,2S2,118.51,2,262.23c0,106.66,65.4,197.92,155.45,238.11"/>
      </g>
    </g>
  </g>
</svg>